<?xml version="1.0" encoding="UTF-8"?>
<svg version="1.1" xmlns="http://www.w3.org/2000/svg" width="2000" height="1500">
<path d="M0 0 C660 0 1320 0 2000 0 C2000 495 2000 990 2000 1500 C1340 1500 680 1500 0 1500 C0 1005 0 510 0 0 Z " fill="#122023" transform="translate(0,0)"/>
<path d="M0 0 C1.26457031 -0.020625 2.52914062 -0.04125 3.83203125 -0.0625 C25.6950519 -0.15256394 44.35954042 8.2999512 60 23.25 C60.60457031 23.77980469 61.20914062 24.30960938 61.83203125 24.85546875 C82.21629224 43.42567373 92.63628445 76.47451113 94 103.25 C94.18696512 109.41547446 94.19557744 115.58220045 94.1875 121.75 C94.18689575 122.59992523 94.1862915 123.44985046 94.18566895 124.32553101 C94.1622763 136.42766084 93.86186416 148.27408987 92 160.25 C91.71725083 162.2187217 91.43471427 164.18747395 91.15234375 166.15625 C85.36735303 205.32338329 73.28687082 242.21670716 54.98876953 277.34179688 C53.97504729 279.29815564 52.98491414 281.2653285 51.99609375 283.234375 C42.22983825 302.44698057 30.07953943 320.16196181 17 337.25 C16.49307617 337.91531738 15.98615234 338.58063477 15.46386719 339.26611328 C10.24626025 346.09193416 4.86114202 352.70123261 -0.9609375 359.02734375 C-2.81250295 361.04562103 -4.59833 363.10349135 -6.375 365.1875 C-14.17822656 374.10547321 -22.69657324 381.92866149 -32 389.25 C-33.09328646 390.13307744 -34.1857003 391.01723606 -35.27734375 391.90234375 C-41.30585592 396.75786037 -47.44648393 401.37243543 -53.875 405.6875 C-54.76590332 406.28872681 -54.76590332 406.28872681 -55.67480469 406.90209961 C-68.50305169 415.35610713 -68.50305169 415.35610713 -76 414.25 C-80.40834254 412.75468193 -84.71052813 411.05609342 -89 409.25 C-87.49717971 404.87640761 -84.71720443 403.71534314 -80.75 401.625 C-68.88888505 395.15460085 -58.25771345 387.01995348 -48 378.25 C-47.22785156 377.59 -46.45570313 376.93 -45.66015625 376.25 C-33.84507588 365.87002922 -22.59777627 354.7215826 -13 342.25 C-12.29746094 341.38761719 -11.59492187 340.52523438 -10.87109375 339.63671875 C2.79393227 322.54965576 14.96969833 303.68072712 25 284.25 C25.33612305 283.61191406 25.67224609 282.97382812 26.01855469 282.31640625 C48.043591 240.44957338 61.77291366 194.61776447 64 147.25 C64.03996094 146.40066895 64.07992188 145.55133789 64.12109375 144.67626953 C65.55236128 108.25766717 56.85247361 71.1579423 32.7109375 43.1015625 C25.96136625 36.0018694 18.25998129 31.10172769 9.5 26.875 C8.83669678 26.55305664 8.17339355 26.23111328 7.48999023 25.89941406 C-2.98037578 21.118887 -13.25490684 19.7424299 -24.6875 19.875 C-25.90759766 19.88080078 -27.12769531 19.88660156 -28.38476562 19.89257812 C-36.77350507 20.0124807 -44.6861644 20.81069709 -52.875 22.59375 C-56 23.25 -56 23.25 -60 23.25 C-60 22.26 -60 21.27 -60 20.25 C-63.11757527 23.31731051 -66.22788747 26.39176894 -69.33227539 29.47241211 C-70.38444728 30.51466238 -71.43842248 31.55509603 -72.49438477 32.59350586 C-79.48782481 39.47377267 -85.88284527 46.5627162 -92 54.25 C-92.97602653 55.39406992 -93.9581591 56.5329902 -94.94921875 57.6640625 C-111.62513065 77.03461305 -125.93766835 99.75627329 -138 122.25 C-138.47550293 123.13236328 -138.95100586 124.01472656 -139.44091797 124.92382812 C-143.05017029 131.65431467 -146.55689586 138.43314753 -150 145.25 C-150.44230957 146.12382324 -150.88461914 146.99764648 -151.34033203 147.89794922 C-158.56999311 162.29974092 -164.51435952 177.10466206 -170 192.25 C-170.35835938 193.23838867 -170.71671875 194.22677734 -171.0859375 195.24511719 C-179.00657571 217.37675007 -185.59968577 240.41924243 -188.63378906 263.765625 C-189.37598854 269.08820133 -190.07262082 273.2768014 -194 277.25 C-197.453125 277.8359375 -197.453125 277.8359375 -201.25 277.625 C-203.14492188 277.54378906 -203.14492188 277.54378906 -205.078125 277.4609375 C-206.04234375 277.39132812 -207.0065625 277.32171875 -208 277.25 C-209.00305818 273.34569974 -208.91307668 270.40270936 -208.21484375 266.4453125 C-208.01745605 265.31714111 -207.82006836 264.18896973 -207.61669922 263.02661133 C-207.28049561 261.21906372 -207.28049561 261.21906372 -206.9375 259.375 C-206.70562988 258.11776123 -206.47375977 256.86052246 -206.23486328 255.56518555 C-190.6539711 173.32576032 -147.67177829 92.36668071 -80 30.25 C-78.69675781 29.13044922 -78.69675781 29.13044922 -77.3671875 27.98828125 C-71.69638096 23.17187622 -65.90354603 18.56867566 -59.9375 14.125 C-59.29417725 13.6393457 -58.65085449 13.15369141 -57.98803711 12.65332031 C-53.35560311 9.25 -53.35560311 9.25 -50 9.25 C-50 9.91 -50 10.57 -50 11.25 C-49.030625 10.86328125 -48.06125 10.4765625 -47.0625 10.078125 C-37.506991 6.34031958 -27.99505852 3.53760142 -18 1.25 C-17.40155273 1.073479 -16.80310547 0.89695801 -16.18652344 0.71508789 C-10.92940916 -0.40313483 -5.35116771 0.02129818 0 0 Z " fill="#2DC93F" transform="translate(530,524.75)"/>
<path d="M0 0 C1.11890625 0.29003906 2.2378125 0.58007812 3.390625 0.87890625 C11.31464373 3.12279307 18.64282049 6.32583695 26 10 C27.06089844 10.52464844 28.12179687 11.04929687 29.21484375 11.58984375 C37.74674279 15.98506447 45.34178764 21.26601019 53 27 C53.7115625 27.46535156 54.423125 27.93070313 55.15625 28.41015625 C69.50848571 38.5545774 73.86894731 65.40938422 76.734375 81.46386719 C77.03083546 83.19726637 77.32268981 84.93146122 77.609375 86.66650391 C77.94156135 88.65090213 78.310635 90.62906877 78.6875 92.60546875 C84.47703094 126.90039854 77.94049945 163.31738528 71 197 C70.78537109 198.04752441 70.57074219 199.09504883 70.34960938 200.17431641 C55.90171919 268.45779738 20.55595527 333.83664428 -24 387 C-25.43753739 388.79163667 -26.87503632 390.5833042 -28.3125 392.375 C-40.71331876 407.50056614 -54.50951057 422.03645254 -70 434 C-71.28799794 435.01662623 -72.57573998 436.03357671 -73.86328125 437.05078125 C-102.39169996 459.40058521 -102.39169996 459.40058521 -111.42578125 459.3671875 C-116.88723656 458.58816353 -121.95548023 456.15314868 -127 454 C-127 453.01 -127 452.02 -127 451 C-124.64027738 449.17946946 -122.30827224 447.55149855 -119.8125 445.9375 C-118.33147951 444.94938754 -116.85233624 443.95845614 -115.375 442.96484375 C-114.26318359 442.21823486 -114.26318359 442.21823486 -113.12890625 441.45654297 C-87.99713549 424.262031 -63.53582551 402.0756681 -45 378 C-44.10233438 376.8995811 -43.20103601 375.80211946 -42.296875 374.70703125 C-27.96613756 357.27904382 -16.04045022 338.6534637 -5 319 C-4.60619141 318.31164062 -4.21238281 317.62328125 -3.80664062 316.9140625 C8.22719174 295.87178902 16.84117572 273.02878909 24.86474609 250.22119141 C25.80581669 247.55097948 26.76639344 244.88953975 27.73828125 242.23046875 C35.66628721 220.08735172 41.02012068 196.29905647 44 173 C44.15142456 171.82860474 44.15142456 171.82860474 44.3059082 170.63354492 C49.33399406 124.73140508 44.71263959 76.17737477 15.375 38.9375 C6.13281984 28.1758664 -4.81659104 21.08522752 -18 16 C-19.10085938 15.56558594 -20.20171875 15.13117188 -21.3359375 14.68359375 C-47.21480291 6.18561392 -77.01321344 13.18775979 -101.03100586 24.00219727 C-101.89218018 24.38819092 -102.75335449 24.77418457 -103.640625 25.171875 C-104.40922852 25.5234668 -105.17783203 25.87505859 -105.96972656 26.23730469 C-108 27 -108 27 -111 27 C-111 26.34 -111 25.68 -111 25 C-108.88783793 23.37360446 -106.7892754 21.89359588 -104.5625 20.4375 C-103.88654785 19.99494873 -103.2105957 19.55239746 -102.51416016 19.09643555 C-71.97105533 -0.57046383 -35.90546704 -9.63821869 0 0 Z " fill="#2DCA3F" transform="translate(608,495)"/>
<path d="M0 0 C2.66504761 3.45166198 4.69231708 7.03918795 6.625 10.9375 C7.13897339 11.97173096 7.13897339 11.97173096 7.66333008 13.02685547 C11.76724861 21.40865796 15.45700756 29.96689716 19.00878906 38.59521484 C19.62531598 40.09097596 20.24847599 41.58404241 20.88183594 43.07275391 C25.80826945 54.70745828 26.26592427 64.60947031 23.3125 76.8671875 C23.13682999 77.60216965 22.96115997 78.33715179 22.78016663 79.09440613 C20.75909959 87.30796186 18.15476381 95.30720587 15.4375 103.3125 C15.17611237 104.08824371 14.91472473 104.86398743 14.64541626 105.66323853 C-7.57601716 171.49858745 -40.05329145 233.63606359 -84.55126953 287.24707031 C-86.61994039 289.75011324 -88.64982215 292.28420376 -90.6875 294.8125 C-94.52686232 299.50427121 -98.56202368 303.99007411 -102.66796875 308.44921875 C-104.63499028 310.60075151 -106.54553129 312.78291973 -108.4375 315 C-115.34513068 322.93400034 -122.97157988 330.2144136 -131 337 C-131.93070313 337.80824219 -132.86140625 338.61648438 -133.8203125 339.44921875 C-145.02913992 349.14029417 -156.80086165 358.02316778 -169.125 366.25 C-169.82334961 366.72824219 -170.52169922 367.20648437 -171.24121094 367.69921875 C-175.2960144 370.34613162 -178.02741326 371.83722124 -183 371 C-186.03870292 370.00368033 -188.94825521 368.78479136 -191.875 367.5 C-193.050625 366.99919922 -193.050625 366.99919922 -194.25 366.48828125 C-196.17078409 365.66843438 -198.08598082 364.83551839 -200 364 C-200 363.01 -200 362.02 -200 361 C-197.69574782 359.38518498 -195.4286708 357.96733854 -193 356.5625 C-166.21862242 340.44210738 -141.0411485 317.96030643 -121 294 C-120.17242188 293.03835938 -119.34484375 292.07671875 -118.4921875 291.0859375 C-112.05692695 283.59502546 -105.89980682 275.92049066 -100 268 C-99.50242187 267.33371582 -99.00484375 266.66743164 -98.4921875 265.98095703 C-55.21906068 207.77273933 -24.44810473 139.80959361 -9 69 C-8.76297363 67.93620117 -8.52594727 66.87240234 -8.28173828 65.77636719 C-3.54074704 44.0984301 -1.85393091 22.07262784 0 0 Z " fill="#2DCA3F" transform="translate(722,600)"/>
<path d="M0 0 C1.5459082 0.01232666 1.5459082 0.01232666 3.12304688 0.02490234 C27.6055245 0.38357758 45.78228087 9.12269103 63.05859375 26.3671875 C78.22582702 42.51009074 85.58571612 63.94254907 89.9375 85.25 C90.18371094 86.41789063 90.42992187 87.58578125 90.68359375 88.7890625 C95.48161402 117.04774738 91.36174799 146.6348223 84.9375 174.25 C84.74816895 175.07322754 84.55883789 175.89645508 84.36376953 176.74462891 C79.48257676 197.58875896 72.21669275 217.96675017 62.9375 237.25 C62.61958496 237.91612305 62.30166992 238.58224609 61.97412109 239.26855469 C48.61965592 267.08866326 31.70324535 291.60260957 11.9375 315.25 C10.9475 314.92 9.9575 314.59 8.9375 314.25 C9.43378906 313.16847656 9.93007813 312.08695313 10.44140625 310.97265625 C16.94109858 296.40549042 21.85973684 281.20422091 24.8515625 265.515625 C25.86723725 260.83974773 27.97437684 257.18562101 30.4375 253.125 C40.78190691 235.21612734 47.93799744 215.99242793 53.9375 196.25 C54.18870605 195.42580566 54.43991211 194.60161133 54.69873047 193.75244141 C60.02526453 175.90245322 63.45877969 156.88179458 63.9375 138.25 C63.98414795 136.96101807 63.98414795 136.96101807 64.03173828 135.64599609 C65.11677855 103.08933563 59.52655272 67.89730053 37.21484375 42.60546875 C19.62854204 24.41586338 -1.23847951 17.77520465 -26.0625 16.25 C-24.24224068 10.38471996 -22.26204967 5.8069904 -17.0625 2.25 C-11.51319002 -0.29127279 -5.98166823 -0.05710654 0 0 Z " fill="#2DC93F" transform="translate(476.0625,559.75)"/>
<path d="M0 0 C17.65074528 0.34609304 34.29783478 10.64906685 46.6875 22.375 C62.92760684 39.29810198 70.53015134 62.30868755 74 85 C74.27263672 86.59521484 74.27263672 86.59521484 74.55078125 88.22265625 C77.82595385 115.76258585 74.99685549 153.9719675 62 179 C61.67 179 61.34 179 61 179 C60.82984375 177.97003906 60.6596875 176.94007813 60.484375 175.87890625 C59.19811104 168.25171351 57.79591831 160.66433581 56.0625 153.125 C55.9171582 152.47345947 55.77181641 151.82191895 55.62207031 151.15063477 C54.69766742 147.23755721 53.45505142 143.68669203 51.91015625 139.97265625 C49.51803746 133.53519757 49.41634053 127.1906388 49.38607788 120.40768433 C49.36727625 116.85168956 49.27983266 113.29722749 49.19921875 109.7421875 C49.18496353 109.05541428 49.17070831 108.36864105 49.15602112 107.66105652 C48.52936269 79.84110473 39.40199667 52.57667318 19 33 C10.89218714 26.23556376 1.80768967 19.70484933 -9 19 C-12.58125682 25.24161903 -14.67090715 29.75420281 -14 37 C-13.29875 37.2475 -12.5975 37.495 -11.875 37.75 C3.26054701 44.33067261 13.98972492 61.15108509 20 76 C20 76.99 20 77.98 20 79 C16.90877125 77.63698986 15.84969094 76.81409143 13.625 74.0625 C6.81198401 65.82867917 -2.79361882 59.61458723 -11.6875 53.8125 C-12.2753125 53.42594238 -12.863125 53.03938477 -13.46875 52.64111328 C-16.21715783 50.89600304 -17.67755985 50 -21 50 C-23.59213026 58.21760446 -25.93637512 66.38206942 -27.58032227 74.84643555 C-29.63271067 85.31628426 -32.61368725 95.24093944 -36.25 105.25 C-36.48919159 105.90839874 -36.72838318 106.56679749 -36.974823 107.24514771 C-37.94288648 109.90343696 -38.91419409 112.56051413 -39.88920593 115.21626282 C-49.87375133 142.43936505 -57.82012208 170.08378041 -63.09838867 198.5949707 C-63.32115479 199.78437256 -63.5439209 200.97377441 -63.7734375 202.19921875 C-63.96341309 203.24940186 -64.15338867 204.29958496 -64.34912109 205.3815918 C-65 208 -65 208 -67 211 C-68.87939453 211.34057617 -68.87939453 211.34057617 -71.1328125 211.29296875 C-71.93847656 211.28330078 -72.74414062 211.27363281 -73.57421875 211.26367188 C-74.41597656 211.23853516 -75.25773437 211.21339844 -76.125 211.1875 C-76.97449219 211.17396484 -77.82398438 211.16042969 -78.69921875 211.14648438 C-80.79974837 211.11108219 -82.89995293 211.05727401 -85 211 C-86.07599825 206.93077882 -85.84955036 203.90333473 -85.06640625 199.78515625 C-84.8341333 198.55740479 -84.60186035 197.32965332 -84.36254883 196.06469727 C-84.09723368 194.73035881 -83.83051123 193.39629954 -83.5625 192.0625 C-83.42717865 191.37872284 -83.2918573 190.69494568 -83.1524353 189.990448 C-74.04686562 144.2134043 -57.78683164 101.69722138 -37 60 C-36.58041016 59.15679199 -36.16082031 58.31358398 -35.72851562 57.44482422 C-13.8625608 13.8625608 -13.8625608 13.8625608 0 0 Z " fill="#2DC93F" transform="translate(442,591)"/>
<path d="M0 0 C0.33 0 0.66 0 1 0 C3.22332607 10.78549668 4.09149972 21.73793713 4.77880859 32.71191406 C4.92551904 34.89281501 5.09748491 37.07217285 5.29541016 39.24902344 C6.85175625 56.85933137 3.50886861 68.10922917 -6.01904297 82.91113281 C-8.07792366 86.12150483 -10.04698572 89.37502589 -12.00390625 92.6484375 C-19.63027034 105.34156953 -27.60123986 117.80446156 -36 130 C-36.48388184 130.70382812 -36.96776367 131.40765625 -37.46630859 132.1328125 C-47.66560599 146.90953576 -58.47051932 161.23315506 -70 175 C-70.41958984 175.50450684 -70.83917969 176.00901367 -71.27148438 176.52880859 C-77.52618634 184.04586465 -83.97066146 191.3469622 -90.625 198.51171875 C-92.00927606 200.01004029 -93.38130727 201.518689 -94.75 203.03125 C-102.75450357 211.86674463 -110.91792212 220.54206623 -120.0078125 228.28125 C-121.40130591 229.48347961 -122.7694189 230.71547441 -124.1171875 231.96875 C-134.26557901 241.39957848 -145.5043095 249.56013822 -156.75 257.625 C-157.30977539 258.0264624 -157.86955078 258.4279248 -158.44628906 258.84155273 C-159.95315643 259.91010466 -161.4761169 260.95585787 -163 262 C-163.80953125 262.60585938 -164.6190625 263.21171875 -165.453125 263.8359375 C-170.3471412 266.07277312 -174.83154816 264.1421919 -179.62109375 262.37109375 C-181.22962593 261.73424631 -182.83507949 261.08957281 -184.4375 260.4375 C-185.67790039 259.9434668 -185.67790039 259.9434668 -186.94335938 259.43945312 C-188.96498093 258.63314164 -190.98288449 257.81751877 -193 257 C-193 256.34 -193 255.68 -193 255 C-191.66162109 253.84594727 -191.66162109 253.84594727 -189.7734375 252.56640625 C-189.07839111 252.08816406 -188.38334473 251.60992188 -187.66723633 251.1171875 C-186.91079834 250.60414063 -186.15436035 250.09109375 -185.375 249.5625 C-163.17282624 234.18838031 -143.23017517 216.28576791 -124.125 197.25 C-123.23288818 196.36256104 -122.34077637 195.47512207 -121.42163086 194.56079102 C-116.40740449 189.53432909 -111.59870154 184.40823847 -107 179 C-106.12281127 177.99052427 -105.24523573 176.98138447 -104.3671875 175.97265625 C-83.14196718 151.1877203 -64.36702408 124.21469705 -48 96 C-47.32130859 94.83766846 -47.32130859 94.83766846 -46.62890625 93.65185547 C-29.0495174 63.44165242 -13.71617715 32.13693679 0 0 Z " fill="#2DC93F" transform="translate(761,724)"/>
<path d="M0 0 C5.23307914 3.45181951 9.27467916 7.33108263 13.03125 12.33984375 C13.52625 5.90484375 13.52625 5.90484375 14.03125 -0.66015625 C17.66125 -0.66015625 21.29125 -0.66015625 25.03125 -0.66015625 C25.1009089 10.52775829 25.15414187 21.71562082 25.18668652 32.90370846 C25.20231012 38.09937668 25.22348789 43.29489598 25.25756836 48.49047852 C25.29027983 53.50903846 25.30812785 58.5274556 25.31588173 63.54611397 C25.32140412 65.45617481 25.33218784 67.36622827 25.34844017 69.27622795 C25.3703713 71.96158317 25.37321041 74.64635606 25.37182617 77.33178711 C25.382612 78.11294388 25.39339783 78.89410065 25.4045105 79.69892883 C25.34612974 90.23697724 21.11092052 98.84429377 14.02734375 106.5078125 C5.16929805 114.95385608 -4.7253289 118.70808936 -16.81640625 118.546875 C-27.73880439 117.82954278 -37.52637144 112.41298116 -44.90625 104.40234375 C-48.02516576 100.5561808 -51.96875 95.44880124 -51.96875 90.33984375 C-50.70456754 89.64018932 -49.43209598 88.95549612 -48.15625 88.27734375 C-47.44855469 87.89449219 -46.74085937 87.51164063 -46.01171875 87.1171875 C-43.96875 86.33984375 -43.96875 86.33984375 -40.96875 87.33984375 C-40.411875 88.53609375 -39.855 89.73234375 -39.28125 90.96484375 C-35.88478643 98.14373266 -29.61373135 102.80367587 -22.30859375 105.67578125 C-13.44246112 108.19204594 -5.8923437 105.59863527 2.03125 101.33984375 C5.55935013 98.85425356 7.76998726 96.65340687 9.78125 92.83984375 C10.18859375 92.08703125 10.5959375 91.33421875 11.015625 90.55859375 C12.67525656 86.93293712 13.15575205 83.76614775 13.12890625 79.79296875 C13.12568359 78.94863281 13.12246094 78.10429688 13.11914062 77.234375 C13.11076172 76.36167969 13.10238281 75.48898437 13.09375 74.58984375 C13.08923828 73.70167969 13.08472656 72.81351563 13.08007812 71.8984375 C13.068324 69.71217046 13.05189249 67.52604196 13.03125 65.33984375 C12.67321289 65.89260986 12.31517578 66.44537598 11.94628906 67.01489258 C7.7987284 73.28411419 2.33740368 77.48042237 -4.796875 79.98046875 C-15.89773955 81.81730245 -26.07523564 80.86599387 -35.55078125 74.64453125 C-46.08589593 66.84191258 -51.77147649 57.1379982 -53.96875 44.33984375 C-54.94823224 31.02265258 -51.59898643 20.48148891 -43.15234375 10.109375 C-32.65954735 -1.18892901 -14.42499663 -7.56235831 0 0 Z " fill="#F8F8F8" transform="translate(1517.96875,812.66015625)"/>
<path d="M0 0 C3.63 0 7.26 0 11 0 C11 39.27 11 78.54 11 119 C7.37 119 3.74 119 0 119 C-0.33 115.04 -0.66 111.08 -1 107 C-1.94875 108.216875 -2.8975 109.43375 -3.875 110.6875 C-9.0507531 116.64489745 -16.44873597 120.63083606 -24.37109375 121.2734375 C-36.7771425 121.71415244 -46.33147026 119.01916305 -56.0390625 110.87109375 C-59.20832235 107.84703903 -61.70191779 104.72608127 -64 101 C-64.48726562 100.24589844 -64.97453125 99.49179687 -65.4765625 98.71484375 C-68.82539387 92.66262616 -69.45911597 87.16240888 -69.5 80.375 C-69.50628418 79.58762451 -69.51256836 78.80024902 -69.51904297 77.98901367 C-69.29388869 67.51059582 -65.19145629 57.87668207 -58.25390625 50.0234375 C-51.52682066 43.67396378 -42.37375751 38.33477705 -33 38 C-32.09636719 37.93941406 -31.19273438 37.87882813 -30.26171875 37.81640625 C-20.32104878 37.39958019 -13.47222768 39.58856432 -5.9375 46.125 C-2.19407895 49.61184211 -2.19407895 49.61184211 -1 52 C-0.67 34.84 -0.34 17.68 0 0 Z " fill="#FAFAFA" transform="translate(1063,631)"/>
<path d="M0 0 C8.75875142 6.20347421 14.97598718 15.61084146 17.25 26.1875 C18.42572968 40.80226643 16.76324185 52.03403903 7 63.6875 C-1.18090906 72.07534605 -10.55057887 76.59857953 -22.25 76.75 C-33.09068007 76.80435315 -41.65368157 73.28339595 -49.75 65.875 C-58.74264275 55.78958041 -62.20281218 44.77977773 -62.01953125 31.43359375 C-61.05594221 19.82863009 -56.12573808 9.78189763 -47.359375 2.08984375 C-32.14494282 -9.177448 -16.10123159 -9.97634449 0 0 Z " fill="#142225" transform="translate(1438.75,816.8125)"/>
<path d="M0 0 C9.78732135 5.92815266 17.57593588 15.10153679 20.6171875 26.265625 C22.40852472 39.06089083 21.85069322 51.44345942 14.1875 62.25 C13.14568055 63.51728784 12.0830856 64.76779392 11 66 C10.23042969 66.92619141 10.23042969 66.92619141 9.4453125 67.87109375 C3.67405745 74.29126982 -5.0130696 78.67534391 -13.66015625 79.23828125 C-26.89454615 79.5748767 -36.07517022 77.31407102 -46 68 C-52.14197058 61.41134065 -57.44247017 52.10632058 -58 43 C-58.0928125 41.71029297 -58.0928125 41.71029297 -58.1875 40.39453125 C-58.74472749 26.93400474 -53.74353069 16.19519356 -44.875 6.3125 C-32.41133456 -5.67609299 -15.29217115 -6.7436293 0 0 Z " fill="#142124" transform="translate(1318,814)"/>
<path d="M0 0 C0.66 0 1.32 0 2 0 C2.41383427 6.63075361 0.86808512 12.53496684 -0.75 18.9375 C-1.16487671 20.61138794 -1.16487671 20.61138794 -1.58813477 22.3190918 C-2.13994422 24.5432168 -2.69464223 26.76662744 -3.25244141 28.98925781 C-3.87234495 31.48587782 -4.46853879 33.98483877 -5.04296875 36.4921875 C-5.94704813 40.3532776 -6.93343747 44.18139804 -8 48 C-8.21672363 48.79245117 -8.43344727 49.58490234 -8.65673828 50.40136719 C-12.34927852 63.48878838 -17.14349237 71.72408117 -27 81 C-28.22925415 82.37744487 -29.44116709 83.77082792 -30.625 85.1875 C-34.07904873 89.18914183 -37.84013214 92.85580603 -41.6015625 96.56640625 C-43.63307222 98.6276938 -45.51731059 100.72186556 -47.375 102.9375 C-51.6290553 107.89725139 -56.51760995 112.16205229 -61.36767578 116.52050781 C-63.01873517 118.01698103 -64.65051737 119.53192767 -66.27734375 121.0546875 C-72.97174109 127.3197908 -79.79378465 133.32275196 -87 139 C-87.70946777 139.56074219 -88.41893555 140.12148438 -89.14990234 140.69921875 C-91.55437912 142.59615557 -93.96365167 144.48680721 -96.375 146.375 C-97.5355188 147.28644775 -97.5355188 147.28644775 -98.71948242 148.21630859 C-100.79705152 149.83337741 -102.89191803 151.42301974 -105 153 C-105.83789062 153.63164063 -106.67578125 154.26328125 -107.5390625 154.9140625 C-113.11756984 157.37568955 -117.87194865 156.21648586 -123.375 154.25 C-125.25539187 153.51362277 -127.13038286 152.76331955 -129 152 C-130.44826172 151.42765625 -130.44826172 151.42765625 -131.92578125 150.84375 C-134.28895842 149.90783825 -136.64644755 148.95980013 -139 148 C-139 147.01 -139 146.02 -139 145 C-136.61328125 143.08984375 -136.61328125 143.08984375 -133.3125 140.9375 C-132.10882526 140.13427858 -130.90705317 139.32819987 -129.70703125 138.51953125 C-129.08908691 138.10396973 -128.47114258 137.6884082 -127.83447266 137.26025391 C-118.03875252 130.530748 -108.98931323 122.75147999 -100 115 C-99.28328125 114.38511719 -98.5665625 113.77023437 -97.828125 113.13671875 C-95.86973151 111.44133265 -93.9315503 109.72590996 -92 108 C-91.15695312 107.24976563 -90.31390625 106.49953125 -89.4453125 105.7265625 C-83.19380374 100.08495703 -77.1525962 94.25621593 -71.1875 88.3125 C-70.48246338 87.61205566 -69.77742676 86.91161133 -69.05102539 86.18994141 C-65.05168597 82.17881287 -61.2329976 78.06502993 -57.53442383 73.77514648 C-55.65261703 71.59811908 -53.70235505 69.48877024 -51.75 67.375 C-47.73993298 62.93141222 -44.02779888 58.31391416 -40.36376953 53.58642578 C-37.38701054 49.7489172 -34.34835066 45.97351323 -31.25610352 42.22851562 C-22.64471211 31.78296617 -14.77523493 20.84833135 -7.03125 9.75 C-6.57065186 9.09402832 -6.11005371 8.43805664 -5.63549805 7.76220703 C-4.77391219 6.53318716 -3.9182777 5.29996664 -3.06958008 4.06201172 C-2.0956702 2.67213734 -1.05418037 1.33002067 0 0 Z " fill="#2DC93F" transform="translate(758,852)"/>
<path d="M0 0 C9.64916514 6.25381981 16.4067546 15.33196541 19.66015625 26.37109375 C20.41015625 30.55859375 20.41015625 30.55859375 20.41015625 41.55859375 C-1.69984375 41.55859375 -23.80984375 41.55859375 -46.58984375 41.55859375 C-43.22807812 52.76447917 -40.0330723 59.21760807 -29.890625 65.1328125 C-23.44200938 67.91830919 -15.59977161 67.76157211 -8.89453125 65.75 C-4.35249144 63.46315417 -1.78891829 60.62914265 1.28515625 56.62109375 C3.21484375 54.25390625 3.21484375 54.25390625 5.41015625 52.55859375 C9.3681483 52.38011666 12.6965064 53.24106724 16.41015625 54.55859375 C13.70270157 64.26030637 6.39879088 70.53522673 -2.1328125 75.40234375 C-10.7878722 79.47531302 -21.33356199 80.54457751 -30.66113281 77.99169922 C-43.63548648 73.17947677 -50.48430712 64.74463373 -56.2421875 52.73046875 C-60.18985345 43.43915063 -60.23464635 31.43476944 -56.46484375 22.05859375 C-55.55497424 20.20073171 -54.59834128 18.36481816 -53.58984375 16.55859375 C-53.14382813 15.73746094 -52.6978125 14.91632812 -52.23828125 14.0703125 C-41.47373911 -3.82047681 -18.28459033 -10.17649145 0 0 Z " fill="#F9F9FA" transform="translate(984.58984375,814.44140625)"/>
<path d="M0 0 C8.66870355 7.10869146 14.01657261 15.31629045 16.75 26.25 C16.75 30.54 16.75 34.83 16.75 39.25 C-5.36 39.25 -27.47 39.25 -50.25 39.25 C-46.06347075 50.76295542 -43.07821972 57.87052197 -32.25 63.25 C-25.16988372 65.61003876 -16.63424792 65.36654407 -9.8125 62.3125 C-6.0818045 60.21284267 -4.05299464 57.87240351 -1.625 54.375 C1.18346289 50.35530429 1.18346289 50.35530429 3.8515625 49.859375 C6.95005585 50.24246145 9.79695307 51.26565102 12.75 52.25 C11.76689252 59.16816375 7.58216554 63.85921091 2.34375 68.28125 C-5.47669124 73.97762078 -12.4224789 76.82052514 -22.125 76.6875 C-22.91583984 76.67847656 -23.70667969 76.66945313 -24.52148438 76.66015625 C-35.60672826 76.33224435 -43.33400438 71.96056321 -51.25 64.25 C-53.63193043 61.41315152 -55.48627271 58.50187219 -57.25 55.25 C-57.6625 54.57195313 -58.075 53.89390625 -58.5 53.1953125 C-63.25181773 43.92266817 -62.61239947 30.98944352 -60.58984375 20.984375 C-57.06647642 11.28367535 -48.94340487 1.9386603 -39.91796875 -3.03515625 C-26.71044275 -9.14610111 -12.02959886 -8.45073548 0 0 Z " fill="#FAFAFA" transform="translate(1647.25,816.75)"/>
<path d="M0 0 C0.70125 0.52464844 1.4025 1.04929687 2.125 1.58984375 C2.888125 2.12480469 3.65125 2.65976562 4.4375 3.2109375 C15.64692368 12.01563684 21.32487317 26.23609411 23.70703125 39.9375 C25.79351949 58.16989721 24.08463693 79.22262707 12.875 94.40234375 C5.03583111 103.59309349 -2.43338365 109.77944858 -14.78125 110.96484375 C-25.6940969 111.46187984 -33.62632808 109.61092641 -42.0625 102.46484375 C-51.16990376 93.6714884 -55.46720906 84.57035877 -58.875 72.58984375 C-59.24625 71.43742188 -59.24625 71.43742188 -59.625 70.26171875 C-64.66146183 52.49420061 -60.24065653 31.20192457 -51.6875 15.40234375 C-46.43371358 6.7470674 -38.92055359 -0.12430681 -29.02319336 -2.9362793 C-19.92191395 -4.94396009 -8.00671404 -5.01809682 0 0 Z M-41.375 18.41015625 C-43.79200344 21.92236437 -45.40006555 25.60454108 -46.875 29.58984375 C-47.4628125 31.10578125 -47.4628125 31.10578125 -48.0625 32.65234375 C-51.66975843 45.69397039 -52.19351236 64.07334474 -46.875 76.58984375 C-46.44960937 77.60304688 -46.02421875 78.61625 -45.5859375 79.66015625 C-41.75055125 88.00776162 -37.62613737 94.13995657 -29.125 98.02734375 C-20.88219287 100.91232625 -13.08399543 100.53692933 -5.15234375 96.890625 C3.75592274 91.80236987 8.835075 82.12489291 11.75610352 72.51318359 C13.21145662 66.66456831 13.47453228 60.9730666 13.4375 54.96484375 C13.43186035 54.00280029 13.4262207 53.04075684 13.42041016 52.04956055 C13.19687176 38.79329081 11.44079258 25.67885018 2.203125 15.46484375 C-3.94350824 9.74704539 -10.27365197 7.00817353 -18.75 7.08984375 C-19.45181396 7.09628906 -20.15362793 7.10273437 -20.87670898 7.109375 C-30.10303289 7.43366711 -35.67500713 11.41710944 -41.375 18.41015625 Z " fill="#F8F8F8" transform="translate(1241.875,641.41015625)"/>
<path d="M0 0 C12.36162997 7.47609126 19.08070314 18.91591953 23.5234375 32.41796875 C26.89148228 46.70499741 27.32106962 64.68640635 22.25 78.5 C21.88648438 79.51191406 21.52296875 80.52382813 21.1484375 81.56640625 C16.58806349 93.32040248 10.30731201 103.46573883 -1.5 108.875 C-10.56124414 112.62335639 -21.46694241 113.20532446 -30.66796875 109.53515625 C-44.407141 102.70423571 -51.52424784 91.95037809 -56.5625 77.6875 C-62.01956612 61.11786288 -60.80088639 39.2992084 -53.75 23.5 C-53.08097656 21.97052734 -53.08097656 21.97052734 -52.3984375 20.41015625 C-47.63246738 10.70515006 -40.2755945 3.0632359 -30.38671875 -1.45703125 C-20.63719627 -4.2530812 -9.28855079 -4.29065037 0 0 Z M-32.75 12.5 C-33.35070313 12.96277344 -33.95140625 13.42554688 -34.5703125 13.90234375 C-43.30600341 21.6358883 -47.98682692 34.08298926 -48.9140625 45.52441406 C-49.81126458 62.1450826 -48.24530946 79.73616197 -36.76171875 92.75390625 C-29.85938171 99.17374983 -23.32421406 101.08776717 -13.97265625 100.8515625 C-6.97313092 100.08797792 -0.43080049 96.84391389 4.25 91.5 C14.5102098 76.93955521 17.44993907 59.49204087 14.5625 41.96484375 C12.29089513 29.8730321 8.31861037 19.27832561 -1.75 11.5 C-10.33164166 5.96345699 -24.6895733 6.27824206 -32.75 12.5 Z " fill="#FAFAFA" transform="translate(1147.75,640.5)"/>
<path d="M0 0 C0.99 0.495 0.99 0.495 2 1 C1.21238281 1.71542969 0.42476562 2.43085937 -0.38671875 3.16796875 C-11.07435779 12.9249519 -21.76742574 22.82670095 -31 34 C-31.66370605 34.79301514 -31.66370605 34.79301514 -32.34082031 35.60205078 C-53.76221126 61.23986936 -71.52389195 89.06779876 -86.08837891 119.12353516 C-86.94823526 120.89344837 -87.82325464 122.65597198 -88.69921875 124.41796875 C-101.35096942 150.51773412 -110.42988287 178.55310009 -116 207 C-116.14276367 207.7125293 -116.28552734 208.42505859 -116.43261719 209.15917969 C-117.70996781 215.55741462 -118.95902188 221.94165189 -119.625 228.4375 C-120 232 -120 232 -121 233 C-123.35313555 233.07271741 -125.70833668 233.08370868 -128.0625 233.0625 C-129.35285156 233.05347656 -130.64320313 233.04445313 -131.97265625 233.03515625 C-133.47119141 233.01775391 -133.47119141 233.01775391 -135 233 C-140.16501407 171.73719425 -95.70543222 98.26545252 -58 53 C-55.4813094 50.09473244 -52.88180227 47.26695685 -50.265625 44.44921875 C-48.29242483 42.31612133 -46.38705297 40.14641013 -44.5 37.9375 C-31.76544396 23.35821856 -16.1019252 10.7346168 0 0 Z " fill="#2DC73F" transform="translate(427,569)"/>
<path d="M0 0 C6.77634526 4.02310382 11.05001078 9.46935735 13.7421875 16.8671875 C15.98132151 26.75459948 15.8680514 38.14289021 10.4375 46.9375 C6.58799284 52.52172177 2.18020326 57.28013324 -4.5625 58.9375 C-15.35061018 60.12861627 -23.70739279 59.13280763 -32.546875 52.43359375 C-38.51947151 47.13738103 -41.9937575 40.36770475 -43.0078125 32.46875 C-43.3253074 22.73223974 -41.49224313 15.218872 -35.3125 7.625 C-26.18235721 -2.09545375 -12.47378359 -5.79954877 0 0 Z " fill="#132124" transform="translate(1047.5625,682.0625)"/>
<path d="M0 0 C7.45324931 5.28279759 11.48268254 11.19474487 14 20 C15.02875917 31.39651393 13.51119196 40.59880892 6.76171875 49.9140625 C2.53829212 54.91474947 -1.38066118 57.83940908 -8.0078125 58.57421875 C-16.98867015 59.12668638 -24.03396582 58.14265678 -31 52 C-37.98494068 45.53394063 -40.99314649 39.76229054 -41.40014648 30.23803711 C-41.57643987 20.2653622 -39.70635519 11.99309987 -32.77734375 4.53515625 C-23.6565658 -3.34279042 -10.83491963 -6.15719328 0 0 Z " fill="#132124" transform="translate(1517,824)"/>
<path d="M0 0 C3.63 0 7.26 0 11 0 C11.33 16.17 11.66 32.34 12 49 C13.98 46.525 13.98 46.525 16 44 C23.96972138 37.75651382 31.99525683 35.99952568 42 37 C52.82084425 39.62710786 59.25921413 44.36284695 65.51953125 53.40234375 C68.21009551 58.12325466 69.25153489 62.41078853 69.22705078 67.82177734 C69.22689972 68.94248627 69.22674866 70.06319519 69.22659302 71.21786499 C69.21627045 72.41182892 69.20594788 73.60579285 69.1953125 74.8359375 C69.1924826 76.07042633 69.18965271 77.30491516 69.18673706 78.57681274 C69.17556522 82.50964149 69.15046564 86.44224037 69.125 90.375 C69.11383825 93.04556959 69.10584119 95.71613701 69.09765625 98.38671875 C69.07563562 104.92456739 69.04112592 111.46224475 69 118 C65.37 118 61.74 118 58 118 C57.9906543 116.46666016 57.98130859 114.93332031 57.97167969 113.35351562 C57.93168774 107.64293799 57.86590213 101.93289385 57.79248047 96.22265625 C57.7643244 93.75527826 57.74308332 91.28781097 57.72900391 88.8203125 C57.70750098 85.26516174 57.66080982 81.71107861 57.609375 78.15625 C57.60814636 77.06010376 57.60691772 75.96395752 57.60565186 74.83459473 C57.45308759 66.78437511 55.85043948 61.48387047 50.75 55.25 C44.69784378 50.29823582 39.58539284 48.27523126 31.671875 48.625 C24.35964571 49.65127779 20.13304848 53.41878282 15.4453125 58.90234375 C12.68431769 62.90951729 11.75167898 66.50998988 11.68115234 71.34106445 C11.66128265 72.3817659 11.64141296 73.42246735 11.62094116 74.4947052 C11.60361435 76.16215034 11.60361435 76.16215034 11.5859375 77.86328125 C11.56657135 79.01040085 11.5472052 80.15752045 11.5272522 81.33940125 C11.46755533 84.9970256 11.42110998 88.65468159 11.375 92.3125 C11.33681117 94.79493547 11.29775892 97.27735782 11.2578125 99.75976562 C11.16186165 105.83973696 11.07779355 111.91977032 11 118 C7.37 118 3.74 118 0 118 C0 79.06 0 40.12 0 0 Z " fill="#FCFCFC" transform="translate(1097,773)"/>
<path d="M0 0 C8.75875142 6.20347421 14.97598718 15.61084146 17.25 26.1875 C18.42572968 40.80226643 16.76324185 52.03403903 7 63.6875 C-1.18090906 72.07534605 -10.55057887 76.59857953 -22.25 76.75 C-33.09068007 76.80435315 -41.65368157 73.28339595 -49.75 65.875 C-58.74264275 55.78958041 -62.20281218 44.77977773 -62.01953125 31.43359375 C-61.05594221 19.82863009 -56.12573808 9.78189763 -47.359375 2.08984375 C-32.14494282 -9.177448 -16.10123159 -9.97634449 0 0 Z M-44.75 15.1875 C-49.98906728 23.74160985 -51.69602766 31.17720735 -50.75 41.1875 C-48.20352269 51.06402416 -42.8135585 58.28683729 -34.1875 63.6875 C-27.62801495 66.59705377 -18.96960254 66.44440288 -12.1796875 64.421875 C-10.21907534 63.48257031 -8.51604769 62.4502241 -6.75 61.1875 C-5.88375 60.65125 -5.0175 60.115 -4.125 59.5625 C2.94750529 52.48999471 6.18395123 44.07712614 6.5625 34.25 C6.33420386 25.48074244 3.22090637 18.57529398 -2.75 12.1875 C-9.44862964 6.04708949 -16.09618127 3.64433346 -25.203125 3.87890625 C-33.00571667 4.8243123 -39.67483538 9.32728813 -44.75 15.1875 Z " fill="#F9F9F9" transform="translate(1438.75,816.8125)"/>
<path d="M0 0 C9.78732135 5.92815266 17.57593588 15.10153679 20.6171875 26.265625 C22.40852472 39.06089083 21.85069322 51.44345942 14.1875 62.25 C13.14568055 63.51728784 12.0830856 64.76779392 11 66 C10.23042969 66.92619141 10.23042969 66.92619141 9.4453125 67.87109375 C3.67405745 74.29126982 -5.0130696 78.67534391 -13.66015625 79.23828125 C-26.89454615 79.5748767 -36.07517022 77.31407102 -46 68 C-52.14197058 61.41134065 -57.44247017 52.10632058 -58 43 C-58.0928125 41.71029297 -58.0928125 41.71029297 -58.1875 40.39453125 C-58.74472749 26.93400474 -53.74353069 16.19519356 -44.875 6.3125 C-32.41133456 -5.67609299 -15.29217115 -6.7436293 0 0 Z M-39.5 16.3125 C-40.3743715 17.51282063 -41.20917647 18.74306194 -42 20 C-42.61488281 20.8971875 -42.61488281 20.8971875 -43.2421875 21.8125 C-47.81689096 29.88921783 -47.48634262 41.31902699 -45.1875 50.10546875 C-41.89242509 57.4850636 -35.62016234 63.64992621 -28.25 67 C-20.83622405 69.24480865 -12.70518682 69.19471844 -5.625 66 C1.2447356 62.02982813 6.37933281 56.05630375 9.34375 48.68359375 C11.39410439 40.29910885 11.44065808 29.64467719 7 22 C1.40184125 14.35373439 -4.02537197 9.99154268 -13 7 C-23.06987599 5.63547135 -32.50118345 8.76717636 -39.5 16.3125 Z " fill="#F9F9F9" transform="translate(1318,814)"/>
<path d="M0 0 C21.12 0 42.24 0 64 0 C64 3.63 64 7.26 64 11 C46.51 11 29.02 11 11 11 C11 22.22 11 33.44 11 45 C26.18 45 41.36 45 57 45 C57 48.96 57 52.92 57 57 C41.82 57 26.64 57 11 57 C11 74.49 11 91.98 11 110 C7.37 110 3.74 110 0 110 C0 73.7 0 37.4 0 0 Z " fill="#F4F5F5" transform="translate(844,640)"/>
<path d="M0 0 C-1.31773204 3.00828582 -2.60401219 4.73996372 -5.1875 6.75 C-8.49921171 9.48369222 -11.23555788 12.4279583 -14.0078125 15.69921875 C-16.30574074 18.35310058 -18.71535573 20.88467397 -21.125 23.4375 C-53.28742783 58.20273195 -77.99114164 103.95875184 -89.45117188 149.86230469 C-90.01771169 152.06898734 -90.6352294 154.25606856 -91.265625 156.4453125 C-94.2097083 166.8347635 -96.15370228 177.20429272 -97.65649414 187.90063477 C-97.80465576 188.92471436 -97.95281738 189.94879395 -98.10546875 191.00390625 C-98.23074951 191.91986572 -98.35603027 192.8358252 -98.48510742 193.77954102 C-99 196 -99 196 -101 198 C-103.09375 198.265625 -103.09375 198.265625 -105.5 198.25 C-106.2940625 198.25515625 -107.088125 198.2603125 -107.90625 198.265625 C-110 198 -110 198 -112 196 C-112.58869019 188.20993533 -111.05467905 180.97342986 -109.4375 173.375 C-109.1679248 172.09753906 -108.89834961 170.82007813 -108.62060547 169.50390625 C-106.0966664 157.77488386 -102.88786893 146.34669473 -99 135 C-98.70399902 134.13536133 -98.40799805 133.27072266 -98.10302734 132.37988281 C-83.70621129 91.1105657 -60.17046758 54.45114883 -30 23 C-29.5064502 22.47921875 -29.01290039 21.9584375 -28.50439453 21.421875 C-8.13638034 0 -8.13638034 0 0 0 Z " fill="#2DC63F" transform="translate(378,605)"/>
<path d="M0 0 C3.63 0 7.26 0 11 0 C11.0093457 1.49781006 11.01869141 2.99562012 11.02832031 4.53881836 C11.06835479 10.1245641 11.13415184 15.70976687 11.20751953 21.29516602 C11.23565108 23.70720415 11.25690426 26.11933313 11.27099609 28.53149414 C11.29253327 32.00974782 11.33924134 35.48691812 11.390625 38.96484375 C11.39185364 40.03395493 11.39308228 41.1030661 11.39434814 42.20457458 C11.551532 50.33835723 13.11313866 56.59498406 18.4375 62.875 C24.56152057 67.95345608 29.56061694 69.38881446 37.40625 69.2734375 C44.08179284 68.56969051 48.45381706 65.07041133 52.67578125 60.07421875 C57.10875865 53.13052849 57.46378984 47.25666655 57.51171875 39.16015625 C57.52966995 38.03806259 57.54762115 36.91596893 57.56611633 35.75987244 C57.6200749 32.19411925 57.65406951 28.62849885 57.6875 25.0625 C57.72068573 22.63735138 57.75517655 20.21222024 57.79101562 17.78710938 C57.87579349 11.85816892 57.94267415 5.92926686 58 0 C61.63 0 65.26 0 69 0 C69 26.07 69 52.14 69 79 C65.37 79 61.74 79 58 79 C58 75.7 58 72.4 58 69 C57.34 69 56.68 69 56 69 C55.75765625 69.59554687 55.5153125 70.19109375 55.265625 70.8046875 C53.75689849 73.42167607 52.27261321 74.48615944 49.75 76.125 C49.00234375 76.62257813 48.2546875 77.12015625 47.484375 77.6328125 C39.48472454 82.03513587 29.99180445 82.4263793 21.25 79.9375 C12.59583451 76.52347141 6.23200886 70.20038438 2 62 C0.44154886 57.91316453 -0.24681069 54.5451631 -0.22705078 50.17822266 C-0.22689972 49.05751373 -0.22674866 47.93680481 -0.22659302 46.78213501 C-0.21627045 45.58817108 -0.20594788 44.39420715 -0.1953125 43.1640625 C-0.1924826 41.92957367 -0.18965271 40.69508484 -0.18673706 39.42318726 C-0.17556522 35.49035851 -0.15046564 31.55775963 -0.125 27.625 C-0.11383825 24.95443041 -0.10584119 22.28386299 -0.09765625 19.61328125 C-0.07563562 13.07543261 -0.04112592 6.53775525 0 0 Z " fill="#FBFBFB" transform="translate(914,671)"/>
<path d="M0 0 C8.23021497 5.9165967 12.82018043 12.4605413 16 22 C16.08813433 23.79470387 16.1176372 25.59254239 16.11352539 27.3894043 C16.11341209 29.04077644 16.11341209 29.04077644 16.11329651 30.72550964 C16.10813522 31.91308365 16.10297394 33.10065765 16.09765625 34.32421875 C16.0962413 35.54075638 16.09482635 36.75729401 16.09336853 38.01069641 C16.08776312 41.9029891 16.07520967 45.79522464 16.0625 49.6875 C16.0574857 52.32356688 16.05292267 54.95963466 16.04882812 57.59570312 C16.03779193 64.06382416 16.02052362 70.53190239 16 77 C12.37 77 8.74 77 5 77 C4.99589111 75.50742676 4.99178223 74.01485352 4.98754883 72.47705078 C4.96566822 66.90427797 4.91128499 61.33220224 4.84741211 55.75976562 C4.82430999 53.35456049 4.80985481 50.94925531 4.80444336 48.54394531 C4.79509724 45.07293915 4.75397962 41.60348983 4.70703125 38.1328125 C4.7109639 37.06886261 4.71489655 36.00491272 4.71894836 34.90872192 C4.56798525 27.0673856 2.79616193 20.4740676 -2.37150574 14.38357544 C-7.78309728 9.42233384 -14.53673351 7.37423817 -21.765625 7.6484375 C-28.13044614 8.64989537 -32.87654874 12.16967138 -37 17 C-40.22719023 21.72552855 -41.10719522 25.4724099 -41.20532227 31.13574219 C-41.22526749 32.15649841 -41.24521271 33.17725464 -41.26576233 34.22894287 C-41.29083107 35.87131927 -41.29083107 35.87131927 -41.31640625 37.546875 C-41.33718735 38.6732135 -41.35796844 39.799552 -41.37937927 40.96002197 C-41.44474333 44.55661949 -41.50369885 48.15328977 -41.5625 51.75 C-41.6056977 54.1888096 -41.6493124 56.62761184 -41.69335938 59.06640625 C-41.80041134 65.04419634 -41.90171604 71.02205958 -42 77 C-45.63 77 -49.26 77 -53 77 C-53 50.93 -53 24.86 -53 -2 C-49.37 -2 -45.74 -2 -42 -2 C-41.67 0.97 -41.34 3.94 -41 7 C-40.23816406 6.29423828 -40.23816406 6.29423828 -39.4609375 5.57421875 C-28.28316673 -4.53601212 -13.65594634 -8.08031275 0 0 Z " fill="#FBFBFB" transform="translate(1235,814)"/>
<path d="M0 0 C28.38 0 56.76 0 86 0 C86 3.3 86 6.6 86 10 C73.46 10 60.92 10 48 10 C48 43 48 76 48 110 C44.37 110 40.74 110 37 110 C37 77 37 44 37 10 C24.79 10 12.58 10 0 10 C0 6.7 0 3.4 0 0 Z " fill="#FBFBFB" transform="translate(841,781)"/>
<path d="M0 0 C5.60717017 2.86924911 9.11959884 5.85309178 12.9074707 10.78710938 C11.4565167 14.61235174 9.52565138 15.97801904 5.9074707 17.78710938 C5.2474707 17.78710938 4.5874707 17.78710938 3.9074707 17.78710938 C3.3918457 17.04460938 2.8762207 16.30210937 2.3449707 15.53710938 C-1.74605658 10.92159141 -6.21186264 9.10060393 -12.32299805 8.43554688 C-20.06642394 8.23951078 -25.67584224 8.6332444 -31.5300293 14.03710938 C-33.57702416 17.63982034 -33.74895324 19.70269371 -33.0925293 23.78710938 C-28.81709165 29.67645395 -22.53229224 31.08826743 -15.8425293 33.28710938 C5.73100011 40.47828585 5.73100011 40.47828585 11.9074707 49.78710938 C13.715863 55.21228627 14.07318874 60.98250363 11.84887695 66.33398438 C8.493894 71.75287283 4.59680541 75.01844459 -1.0925293 77.78710938 C-1.68549805 78.10550781 -2.2784668 78.42390625 -2.8894043 78.75195312 C-10.90638088 82.46922645 -20.74444364 81.89551337 -28.9675293 79.16210938 C-35.8556167 76.29122759 -41.98080732 72.12601409 -46.0925293 65.78710938 C-46.0925293 64.79710937 -46.0925293 63.80710937 -46.0925293 62.78710938 C-43.12869961 61.20228378 -40.46115447 60.07569876 -37.0925293 59.78710938 C-34.65820201 61.21827981 -32.96092566 62.91879086 -30.97924805 64.92382812 C-26.86303517 68.98890793 -22.37557779 69.97312405 -16.7800293 70.22460938 C-11.03289193 70.0422864 -6.01334785 68.82616175 -1.0925293 65.78710938 C1.6019605 62.32276535 1.9074707 60.52922083 1.9074707 56.16210938 C0.63851298 51.87937707 -0.33587149 51.19879093 -4.0925293 48.78710938 C-8.91573408 46.90129515 -13.88683062 45.46888006 -18.83862305 43.96289062 C-38.32107558 37.811827 -38.32107558 37.811827 -43.0925293 29.78710938 C-45.06110167 23.88139226 -45.29780462 17.01229274 -43.10424805 11.14257812 C-34.57618962 -2.95874665 -14.48606435 -6.56309683 0 0 Z " fill="#F7F8F8" transform="translate(1719.092529296875,812.212890625)"/>
<path d="M0 0 C3.66838982 3.00071217 6.71358529 6.46000692 9.625 10.1875 C8.16962432 11.02598804 6.71059627 11.85813934 5.25 12.6875 C4.43789062 13.1515625 3.62578125 13.615625 2.7890625 14.09375 C0.625 15.1875 0.625 15.1875 -1.375 15.1875 C-2.035 14.465625 -2.695 13.74375 -3.375 13 C-8.20723495 8.04022806 -14.49078692 4.91472893 -21.4375 4.6875 C-30.00073915 5.22270245 -36.14133403 7.85034363 -42.35546875 13.8359375 C-48.53603351 21.03264927 -50.16532647 28.46573896 -49.796875 37.8203125 C-48.85644505 45.32633672 -45.699669 52.70950283 -40.375 58.1875 C-32.43158286 64.18400117 -25.25297143 65.13629128 -15.375 64.1875 C-10.50395142 62.60393414 -6.63876594 60.48542178 -3.0625 56.8125 C-2.505625 56.27625 -1.94875 55.74 -1.375 55.1875 C2.60016452 55.2894273 5.35485406 57.03854695 8.625 59.1875 C7.7953836 64.59185824 3.74870488 67.01712474 -0.375 70.1875 C-9.77520514 76.80019842 -20.30600969 77.08650429 -31.375 76.1875 C-34.77386798 75.33898828 -37.44209816 74.08387428 -40.375 72.1875 C-41.05820313 71.75179687 -41.74140625 71.31609375 -42.4453125 70.8671875 C-51.1949272 64.77905255 -58.17829263 56.35474537 -60.984375 45.921875 C-62.97968006 31.95473961 -61.52084941 20.17612723 -53.25 8.4375 C-39.72693356 -7.69631029 -17.82318004 -12.63887101 0 0 Z " fill="#F9F9FA" transform="translate(1074.375,816.8125)"/>
<path d="M0 0 C3.63 0 7.26 0 11 0 C11 38.94 11 77.88 11 118 C7.37 118 3.74 118 0 118 C0 79.06 0 40.12 0 0 Z " fill="#F8F9F9" transform="translate(1352,773)"/>
<path d="M0 0 C6.28996579 3.77397947 10.74960169 11.09948954 13 18 C13 19.65 13 21.3 13 23 C-5.48 23 -23.96 23 -43 23 C-41.88782613 14.10260907 -39.61757422 7.9635492 -32.7109375 2.03515625 C-21.62888837 -5.54437233 -12.11698395 -5.64541298 0 0 Z " fill="#152225" transform="translate(1640,824)"/>
<path d="M0 0 C5.07579611 4.21862524 9.5191107 8.96010618 11.609375 15.3359375 C11.609375 17.6459375 11.609375 19.9559375 11.609375 22.3359375 C-6.540625 22.3359375 -24.690625 22.3359375 -43.390625 22.3359375 C-43.390625 14.67117376 -41.41451802 9.80434864 -36.37109375 4.01953125 C-26.21972873 -5.63404354 -11.96357974 -8.32758982 0 0 Z " fill="#142225" transform="translate(981.390625,824.6640625)"/>
<path d="M0 0 C3.63 0 7.26 0 11 0 C11 26.07 11 52.14 11 79 C7.37 79 3.74 79 0 79 C0 52.93 0 26.86 0 0 Z " fill="#FEFEFE" transform="translate(1561,812)"/>
<path d="M0 0 C3.4375 0.8125 3.4375 0.8125 5.4375 3.8125 C5.78690459 6.60773674 5.80983787 8.1773354 4.375 10.625 C1.34374457 12.48286623 -1.09672859 12.18383265 -4.5625 11.8125 C-6.5625 10.75 -6.5625 10.75 -7.5625 8.8125 C-7.4375 5.25 -7.4375 5.25 -6.5625 1.8125 C-3.5625 -0.1875 -3.5625 -0.1875 0 0 Z " fill="#F4F4F4" transform="translate(1567.5625,786.1875)"/>
</svg>
